<mxfile host="app.diagrams.net" modified="2024-03-28T11:11:34.862Z" agent="Mozilla/5.0 (Windows NT 10.0; Win64; x64) AppleWebKit/537.36 (KHTML, like Gecko) Chrome/123.0.0.0 Safari/537.36" etag="vJkv28khTKAtny8jEXnA" version="24.2.0" type="github">
  <diagram name="Page-1" id="VPSog0np3-lr8vOsg7xT">
    <mxGraphModel dx="2416" dy="1902" grid="1" gridSize="10" guides="1" tooltips="1" connect="1" arrows="1" fold="1" page="1" pageScale="1" pageWidth="850" pageHeight="1100" math="0" shadow="0">
      <root>
        <mxCell id="0" />
        <mxCell id="1" parent="0" />
        <mxCell id="bnQwY3xGrM0n68NEsYvb-1" value="Adm:Admin" style="shape=umlLifeline;perimeter=lifelinePerimeter;whiteSpace=wrap;html=1;container=0;dropTarget=0;collapsible=0;recursiveResize=0;outlineConnect=0;portConstraint=eastwest;newEdgeStyle={&quot;edgeStyle&quot;:&quot;elbowEdgeStyle&quot;,&quot;elbow&quot;:&quot;vertical&quot;,&quot;curved&quot;:0,&quot;rounded&quot;:0};fillColor=default;strokeColor=#000000;gradientColor=#CCE5FF;" vertex="1" parent="1">
          <mxGeometry x="42" y="40" width="100" height="410" as="geometry" />
        </mxCell>
        <mxCell id="bnQwY3xGrM0n68NEsYvb-2" value="" style="html=1;points=[];perimeter=orthogonalPerimeter;outlineConnect=0;targetShapes=umlLifeline;portConstraint=eastwest;newEdgeStyle={&quot;edgeStyle&quot;:&quot;elbowEdgeStyle&quot;,&quot;elbow&quot;:&quot;vertical&quot;,&quot;curved&quot;:0,&quot;rounded&quot;:0};" vertex="1" parent="bnQwY3xGrM0n68NEsYvb-1">
          <mxGeometry x="45" y="110" width="10" height="200" as="geometry" />
        </mxCell>
        <mxCell id="bnQwY3xGrM0n68NEsYvb-4" value="" style="group;fillColor=none;" vertex="1" connectable="0" parent="1">
          <mxGeometry x="15" y="124" width="620" height="326" as="geometry" />
        </mxCell>
        <mxCell id="bnQwY3xGrM0n68NEsYvb-5" value="&lt;b&gt;opt&lt;/b&gt;" style="shape=umlFrame;whiteSpace=wrap;html=1;pointerEvents=0;width=50;height=20;fillColor=#dae8fc;strokeColor=#6c8ebf;" vertex="1" parent="bnQwY3xGrM0n68NEsYvb-4">
          <mxGeometry y="-1.8095957225362749" width="620" height="327.8095957225363" as="geometry" />
        </mxCell>
        <mxCell id="bnQwY3xGrM0n68NEsYvb-6" value="&lt;b&gt;[Authentifier = True]&lt;/b&gt;" style="text;html=1;align=center;verticalAlign=middle;resizable=0;points=[];autosize=1;strokeColor=none;fillColor=none;" vertex="1" parent="bnQwY3xGrM0n68NEsYvb-4">
          <mxGeometry x="66.90564853556485" y="-3.3289575722944407" width="140" height="30" as="geometry" />
        </mxCell>
        <mxCell id="bnQwY3xGrM0n68NEsYvb-40" value="" style="endArrow=open;endFill=1;html=1;rounded=0;" edge="1" parent="bnQwY3xGrM0n68NEsYvb-4">
          <mxGeometry width="160" relative="1" as="geometry">
            <mxPoint x="83" y="89.21515887430868" as="sourcePoint" />
            <mxPoint x="520" y="89.2151588743086" as="targetPoint" />
          </mxGeometry>
        </mxCell>
        <mxCell id="bnQwY3xGrM0n68NEsYvb-41" value="TotaleDeponseOm(date)" style="edgeLabel;html=1;align=center;verticalAlign=middle;resizable=0;points=[];" vertex="1" connectable="0" parent="bnQwY3xGrM0n68NEsYvb-40">
          <mxGeometry x="-0.0482" relative="1" as="geometry">
            <mxPoint x="2" as="offset" />
          </mxGeometry>
        </mxCell>
        <mxCell id="bnQwY3xGrM0n68NEsYvb-23" value="Om:Ordre de Mission" style="shape=umlLifeline;perimeter=lifelinePerimeter;whiteSpace=wrap;html=1;container=0;dropTarget=0;collapsible=0;recursiveResize=0;outlineConnect=0;portConstraint=eastwest;newEdgeStyle={&quot;edgeStyle&quot;:&quot;elbowEdgeStyle&quot;,&quot;elbow&quot;:&quot;vertical&quot;,&quot;curved&quot;:0,&quot;rounded&quot;:0};gradientColor=#CCE5FF;" vertex="1" parent="1">
          <mxGeometry x="480" y="40.5" width="120" height="409.5" as="geometry" />
        </mxCell>
        <mxCell id="bnQwY3xGrM0n68NEsYvb-37" value="" style="html=1;points=[];perimeter=orthogonalPerimeter;outlineConnect=0;targetShapes=umlLifeline;portConstraint=eastwest;newEdgeStyle={&quot;edgeStyle&quot;:&quot;elbowEdgeStyle&quot;,&quot;elbow&quot;:&quot;vertical&quot;,&quot;curved&quot;:0,&quot;rounded&quot;:0};" vertex="1" parent="bnQwY3xGrM0n68NEsYvb-23">
          <mxGeometry x="55" y="111.15" width="10" height="198.85" as="geometry" />
        </mxCell>
        <mxCell id="bnQwY3xGrM0n68NEsYvb-34" value="Consulter les Ordres de Mission" style="swimlane;startSize=20;" vertex="1" parent="1">
          <mxGeometry x="-10" y="-40" width="670" height="510" as="geometry">
            <mxRectangle x="-10" y="-30" width="90" height="30" as="alternateBounds" />
          </mxGeometry>
        </mxCell>
        <mxCell id="bnQwY3xGrM0n68NEsYvb-35" value="s: sequence model" style="shape=umlFrame;whiteSpace=wrap;html=1;pointerEvents=0;width=110;height=30;" vertex="1" parent="bnQwY3xGrM0n68NEsYvb-34">
          <mxGeometry x="10" y="20" width="650" height="490" as="geometry" />
        </mxCell>
        <mxCell id="bnQwY3xGrM0n68NEsYvb-44" value="" style="endArrow=open;endFill=1;html=1;rounded=0;" edge="1" parent="bnQwY3xGrM0n68NEsYvb-34">
          <mxGeometry width="160" relative="1" as="geometry">
            <mxPoint x="108" y="290" as="sourcePoint" />
            <mxPoint x="546" y="290" as="targetPoint" />
          </mxGeometry>
        </mxCell>
        <mxCell id="bnQwY3xGrM0n68NEsYvb-45" value="NombreOm(user,date)" style="edgeLabel;html=1;align=center;verticalAlign=middle;resizable=0;points=[];" vertex="1" connectable="0" parent="bnQwY3xGrM0n68NEsYvb-44">
          <mxGeometry x="-0.0482" relative="1" as="geometry">
            <mxPoint x="2" as="offset" />
          </mxGeometry>
        </mxCell>
        <mxCell id="bnQwY3xGrM0n68NEsYvb-47" value="" style="endArrow=open;endFill=1;html=1;rounded=0;" edge="1" parent="bnQwY3xGrM0n68NEsYvb-34">
          <mxGeometry width="160" relative="1" as="geometry">
            <mxPoint x="109" y="330" as="sourcePoint" />
            <mxPoint x="547" y="330" as="targetPoint" />
          </mxGeometry>
        </mxCell>
        <mxCell id="bnQwY3xGrM0n68NEsYvb-48" value="MontantDepenses(user,date)" style="edgeLabel;html=1;align=center;verticalAlign=middle;resizable=0;points=[];" vertex="1" connectable="0" parent="bnQwY3xGrM0n68NEsYvb-47">
          <mxGeometry x="-0.0482" relative="1" as="geometry">
            <mxPoint x="2" as="offset" />
          </mxGeometry>
        </mxCell>
        <mxCell id="bnQwY3xGrM0n68NEsYvb-38" value="" style="endArrow=open;endFill=1;html=1;rounded=0;" edge="1" parent="1">
          <mxGeometry width="160" relative="1" as="geometry">
            <mxPoint x="97" y="171" as="sourcePoint" />
            <mxPoint x="535" y="171" as="targetPoint" />
          </mxGeometry>
        </mxCell>
        <mxCell id="bnQwY3xGrM0n68NEsYvb-39" value="VisualiserNbOm(date)" style="edgeLabel;html=1;align=center;verticalAlign=middle;resizable=0;points=[];" vertex="1" connectable="0" parent="bnQwY3xGrM0n68NEsYvb-38">
          <mxGeometry x="-0.0482" relative="1" as="geometry">
            <mxPoint x="2" as="offset" />
          </mxGeometry>
        </mxCell>
      </root>
    </mxGraphModel>
  </diagram>
</mxfile>
